<svg width="24" height="28" viewBox="0 0 24 28" fill="none" xmlns="http://www.w3.org/2000/svg">
<path d="M12 25.1481C11.81 25.1481 11.62 25.0756 11.47 24.92L5.4 18.6252C5.11 18.3244 5.11 17.8267 5.4 17.5259C5.69 17.2252 6.17 17.2252 6.46 17.5259L12 23.2711L17.54 17.5259C17.83 17.2252 18.31 17.2252 18.6 17.5259C18.89 17.8267 18.89 18.3244 18.6 18.6252L12.53 24.92C12.38 25.0756 12.19 25.1481 12 25.1481Z" fill="black"/>
<path d="M12 24.8889C11.4533 24.8889 11 24.4272 11 23.8705V1.01837C11 0.46166 11.4533 0 12 0C12.5467 0 13 0.46166 13 1.01837V23.8705C13 24.4272 12.5467 24.8889 12 24.8889Z" fill="black"/>
</svg>
