<?xml version="1.0" standalone="no"?>
<!DOCTYPE svg PUBLIC "-//W3C//DTD SVG 20010904//EN"
 "http://www.w3.org/TR/2001/REC-SVG-20010904/DTD/svg10.dtd">
<svg version="1.0" xmlns="http://www.w3.org/2000/svg"
 width="875.000000pt" height="781.000000pt" viewBox="0 0 875.000000 781.000000"
 preserveAspectRatio="xMidYMid meet">
<metadata>
Created by potrace 1.16, written by Peter Selinger 2001-2019
</metadata>
<g transform="translate(0.000000,781.000000) scale(0.100000,-0.100000)"
fill="#000000" stroke="none">
<path d="M3240 7784 c-52 -13 -136 -44 -185 -69 -83 -42 -137 -77 -368 -238
-109 -76 -179 -100 -395 -137 -268 -45 -305 -59 -377 -140 -51 -57 -240 -207
-530 -420 -171 -125 -335 -259 -409 -334 -69 -68 -73 -75 -105 -176 -77 -241
-112 -300 -382 -646 -200 -257 -275 -393 -304 -553 -8 -42 -19 -195 -24 -341
-11 -287 -17 -318 -100 -564 -105 -306 -77 -504 124 -906 79 -158 118 -220
197 -311 85 -99 92 -101 174 -49 94 59 189 100 232 99 34 0 45 -9 127 -99 50
-55 95 -100 101 -100 6 0 42 33 80 74 98 105 148 138 193 130 90 -16 125 -44
167 -131 14 -29 28 -53 30 -53 3 0 24 10 46 21 63 32 147 59 184 59 43 0 77
-41 98 -117 9 -32 21 -75 26 -95 12 -42 23 -45 74 -24 19 8 59 19 89 26 47 9
60 8 91 -6 39 -19 44 -32 86 -210 23 -99 27 -104 96 -104 45 0 101 -26 120
-55 24 -37 5 -121 -46 -205 -22 -36 -40 -69 -40 -73 0 -4 24 -32 54 -62 30
-30 67 -75 82 -101 50 -86 30 -203 -51 -293 l-37 -41 38 -52 c37 -50 39 -55
39 -133 0 -93 -11 -118 -85 -200 -27 -30 -52 -65 -55 -77 -3 -13 7 -63 23
-113 22 -67 35 -93 53 -103 29 -15 105 -9 233 19 56 12 92 16 100 10 6 -5 40
-19 75 -31 35 -11 98 -38 140 -59 96 -49 170 -71 235 -71 28 0 143 13 256 29
327 47 316 47 387 17 74 -31 206 -48 282 -35 34 5 122 41 234 94 l179 87 167
8 c164 8 170 9 252 45 46 20 143 60 214 88 l130 50 130 2 c142 2 228 16 290
48 61 30 273 174 334 225 39 33 63 65 87 116 19 39 34 77 34 84 0 8 14 42 31
76 25 51 44 71 111 121 105 78 197 178 241 262 25 49 50 79 87 107 28 21 96
86 150 144 85 89 107 120 150 208 28 56 56 128 63 160 11 52 16 60 57 85 58
36 135 131 190 234 l42 80 -7 150 c-6 139 -4 159 20 275 31 144 42 172 149
374 100 188 116 239 116 366 0 130 -10 179 -76 349 -40 105 -54 151 -49 170
14 54 5 277 -15 367 -14 62 -20 127 -20 215 0 126 -8 172 -40 219 -9 14 -27
58 -40 98 -27 87 -94 197 -208 342 -46 58 -99 127 -120 154 -95 124 -210 254
-356 403 -161 165 -172 179 -289 359 -76 117 -143 181 -230 222 -113 54 -405
142 -534 163 -68 10 -179 28 -248 39 -68 10 -142 28 -164 39 -21 11 -74 51
-116 88 -169 150 -163 148 -615 163 -370 12 -429 22 -690 112 -255 88 -316 95
-480 52z m323 -140 c70 -16 181 -65 321 -141 66 -37 72 -38 165 -37 53 0 157
4 232 9 217 13 293 -9 679 -199 164 -81 248 -106 392 -116 196 -14 457 -98
630 -201 97 -58 142 -99 169 -152 22 -41 37 -137 23 -137 -5 0 -47 34 -94 76
-210 186 -434 301 -725 373 -86 21 -327 65 -411 75 -50 6 -104 -5 -104 -21 0
-5 37 -16 83 -26 105 -24 380 -116 520 -174 165 -69 430 -203 548 -276 59 -36
174 -100 257 -141 l150 -75 35 -70 c20 -39 45 -115 57 -168 14 -61 29 -104 41
-114 10 -9 51 -25 91 -34 92 -23 176 -57 256 -103 68 -39 83 -62 153 -237 50
-125 53 -151 50 -430 -2 -237 0 -267 20 -358 l22 -98 -27 -27 c-26 -26 -27
-27 -39 -7 -68 114 -89 321 -48 473 20 74 -2 240 -46 347 -31 73 -139 215
-164 215 -4 0 11 -45 32 -99 61 -159 83 -252 83 -366 1 -97 0 -103 -47 -212
-75 -179 -65 -229 72 -354 72 -65 79 -74 69 -93 -6 -12 -74 -84 -152 -161 -78
-77 -188 -197 -246 -265 -205 -246 -270 -319 -302 -341 -18 -12 -49 -37 -68
-54 -22 -20 -69 -45 -125 -64 -49 -18 -139 -56 -200 -85 -60 -29 -151 -68
-201 -85 -56 -20 -128 -57 -189 -96 -125 -81 -219 -113 -285 -96 -25 7 -93 13
-151 15 -96 3 -114 7 -179 37 -62 28 -82 44 -140 114 -37 44 -76 96 -86 116
-11 20 -29 55 -42 78 -12 23 -38 87 -57 142 -36 105 -105 235 -163 306 -92
113 -372 263 -492 263 -21 0 -58 9 -83 20 -25 11 -52 17 -61 14 -9 -3 -44 -1
-79 5 -34 7 -73 12 -87 13 -14 0 -46 7 -72 14 -55 15 -101 5 -218 -46 -36 -15
-83 -33 -106 -39 -53 -14 -126 -70 -469 -364 -49 -43 -332 -181 -480 -235
-166 -60 -251 -77 -333 -64 -37 6 -114 19 -172 27 -86 14 -119 24 -180 57
-176 96 -380 233 -393 263 -3 7 8 9 29 7 26 -3 42 3 71 25 48 37 171 117 221
142 37 19 123 103 155 152 36 55 30 214 -10 293 -33 63 -192 210 -272 251 -19
10 -68 19 -111 22 -176 12 -343 -84 -421 -243 -18 -36 -33 -63 -35 -61 -12 12
-38 148 -55 290 -17 145 -18 180 -8 253 11 75 10 88 -6 123 l-18 40 32 40 c18
22 87 85 154 139 126 102 140 118 157 189 13 51 48 95 94 117 28 13 38 26 52
69 48 149 102 203 304 307 164 84 220 124 276 194 61 76 90 134 129 249 40
118 41 127 20 127 -10 0 -27 -25 -44 -62 -28 -62 -101 -144 -181 -204 -46 -34
-147 -84 -239 -119 -62 -23 -86 -40 -140 -94 -91 -91 -127 -141 -296 -406
-174 -272 -222 -339 -309 -424 l-65 -64 -29 28 -30 28 51 86 c176 300 381 580
570 777 97 102 154 140 292 194 104 41 219 103 264 142 20 17 60 63 90 102
140 184 196 215 466 251 66 8 153 20 194 25 46 7 93 21 124 38 55 29 150 119
212 200 33 44 51 57 129 91 239 103 394 130 549 95z m-2354 -2802 c7 -13 2
-41 -21 -103 -17 -46 -36 -104 -43 -129 -9 -32 -18 -46 -32 -48 -16 -2 -30 13
-65 75 -104 180 -88 220 84 222 55 1 69 -2 77 -17z m2542 -415 c48 -14 115
-31 150 -37 129 -23 298 -116 377 -205 52 -59 123 -203 158 -320 26 -84 28
-103 30 -303 1 -196 0 -214 -18 -237 -10 -13 -24 -41 -31 -61 -13 -36 -16 -38
-153 -86 -187 -66 -230 -78 -289 -78 -28 0 -69 -9 -93 -20 -24 -11 -84 -26
-133 -34 -83 -14 -94 -13 -157 5 -37 10 -98 19 -137 19 -80 1 -152 26 -229 80
-27 19 -56 40 -64 45 -218 136 -247 168 -307 355 -34 103 -38 127 -39 225 -1
128 7 147 88 233 43 46 184 155 277 214 15 10 58 47 95 84 91 87 123 112 181
135 63 26 177 20 294 -14z"/>
<path d="M3298 7434 c-83 -20 -130 -47 -196 -112 -72 -72 -113 -151 -119 -234
-16 -202 103 -392 290 -462 59 -23 153 -32 278 -27 23 1 95 66 139 125 124
168 154 346 81 482 -38 73 -104 149 -161 189 -73 50 -201 67 -312 39z m182
-185 c22 -29 39 -53 37 -55 -2 -3 -39 1 -83 7 -43 6 -103 8 -131 5 -57 -7 -67
3 -30 27 30 19 138 66 154 67 7 0 31 -23 53 -51z"/>
<path d="M1943 6406 c-41 -30 -65 -83 -60 -129 12 -99 24 -131 64 -164 54 -46
207 -129 279 -152 33 -10 93 -33 133 -50 40 -17 80 -31 88 -31 8 0 82 -23 166
-51 245 -81 535 -132 862 -149 116 -6 230 -15 255 -20 25 -5 198 -12 385 -16
l340 -7 140 28 c77 15 196 48 265 72 69 24 158 56 198 70 41 15 71 31 69 37
-2 6 -21 83 -42 171 -21 88 -40 162 -42 164 -1 2 -44 -12 -95 -31 -132 -50
-281 -95 -393 -118 -84 -17 -137 -20 -394 -20 -215 0 -321 4 -386 15 -49 8
-171 17 -270 20 -171 6 -284 19 -440 50 -38 8 -97 19 -130 24 -73 11 -181 41
-253 70 -29 12 -69 21 -90 21 -46 0 -321 91 -359 119 -34 25 -185 82 -233 88
-22 3 -43 -2 -57 -11z"/>
<path d="M5475 6344 c-44 -19 -96 -40 -116 -46 -47 -14 -49 -23 -49 -235 l0
-165 33 8 c112 24 350 129 389 170 109 117 26 305 -134 304 -27 0 -73 -14
-123 -36z"/>
<path d="M5111 6206 c-14 -17 -6 -74 36 -249 29 -124 50 -141 45 -36 -5 82
-29 276 -37 289 -9 14 -31 12 -44 -4z"/>
<path d="M6170 5894 c-30 -8 -77 -27 -105 -43 -41 -22 -56 -38 -80 -87 l-30
-59 0 -185 c0 -210 5 -232 68 -314 24 -29 53 -77 67 -105 20 -44 29 -53 64
-63 65 -20 212 -16 271 6 68 26 88 46 152 156 31 52 75 120 98 150 52 68 58
91 45 177 -37 262 -297 435 -550 367z m145 -109 c12 -7 56 -40 98 -74 63 -50
77 -66 77 -89 0 -16 -6 -36 -12 -45 -21 -27 -106 -48 -223 -54 -126 -6 -139
-1 -151 64 -8 43 16 96 74 163 51 61 84 69 137 35z"/>
<path d="M2153 5596 c-241 -113 -235 -459 10 -566 63 -27 121 -33 180 -20 147
34 247 156 247 301 0 87 -13 111 -94 173 -87 65 -224 136 -263 136 -16 0 -51
-11 -80 -24z m290 -194 c28 -24 23 -90 -10 -124 -32 -33 -61 -35 -97 -7 -30
24 -34 61 -12 113 24 57 64 63 119 18z"/>
<path d="M3731 5511 c-10 -10 -33 -56 -51 -102 -27 -71 -34 -106 -43 -219 -16
-211 -11 -354 19 -516 8 -42 111 -66 159 -36 l30 19 3 169 c2 114 -2 202 -13
269 -8 58 -15 168 -15 261 0 138 -2 163 -16 168 -28 11 -54 6 -73 -13z"/>
<path d="M5240 5466 c-207 -55 -290 -92 -315 -144 -26 -55 -32 -177 -10 -241
24 -73 109 -164 178 -189 84 -31 129 -35 199 -17 108 27 192 98 229 195 28 72
23 194 -9 257 -39 76 -109 141 -167 156 -11 3 -58 -5 -105 -17z m-95 -183 c13
-12 15 -26 10 -57 -8 -53 -26 -80 -65 -96 -28 -12 -34 -11 -58 7 -22 17 -28
29 -30 73 -4 70 14 90 79 90 31 0 53 -6 64 -17z"/>
<path d="M5530 4644 c-131 -34 -247 -115 -300 -208 -63 -109 -76 -287 -27
-355 12 -16 55 -75 95 -131 79 -108 107 -132 188 -155 82 -25 148 -21 251 13
179 60 268 146 308 299 21 81 19 122 -12 210 -47 137 -98 219 -171 271 -92 65
-218 86 -332 56z m87 -131 c69 -47 167 -158 159 -179 -7 -19 -66 -44 -103 -44
-15 0 -59 -12 -98 -25 -72 -26 -149 -33 -160 -15 -16 26 82 259 119 285 11 8
22 15 25 15 2 0 29 -17 58 -37z"/>
<path d="M3223 4028 c-47 -12 -67 -47 -61 -109 6 -61 33 -96 144 -193 87 -75
187 -131 279 -157 61 -17 219 -34 289 -30 46 2 242 64 311 98 65 33 125 90
125 121 0 45 -27 80 -68 87 -35 6 -49 0 -150 -60 -128 -75 -226 -107 -340
-108 -72 0 -73 0 -155 56 -77 52 -173 144 -259 249 -40 49 -65 59 -115 46z"/>
<path d="M675 2885 c-16 -7 -41 -22 -54 -33 l-24 -19 42 -55 c22 -30 41 -60
41 -65 0 -14 37 -20 75 -13 22 4 32 14 43 42 18 45 10 79 -26 117 -34 37 -59
44 -97 26z"/>
<path d="M1277 2764 c-21 -36 -37 -72 -35 -81 3 -16 84 -51 122 -52 10 -1 34
15 53 35 30 32 33 40 27 72 -4 21 -8 46 -10 56 -5 27 -22 36 -74 36 l-46 0
-37 -66z"/>
<path d="M636 2608 c-9 -13 -21 -38 -27 -56 -10 -29 -8 -36 15 -67 29 -38 48
-42 106 -21 40 14 39 13 21 83 -14 59 -23 68 -68 77 -26 6 -34 3 -47 -16z"/>
<path d="M2149 1958 c-11 -13 -33 -38 -47 -56 -26 -34 -26 -34 -8 -67 31 -56
58 -75 126 -86 46 -7 65 -7 70 1 9 15 21 155 15 172 -7 18 -85 58 -112 58 -12
0 -32 -10 -44 -22z"/>
<path d="M2195 1701 c-11 -3 -29 -12 -41 -20 l-21 -14 20 -48 c19 -45 24 -49
64 -55 54 -8 68 -2 88 37 14 25 14 36 5 60 -15 36 -69 55 -115 40z"/>
<path d="M2550 788 c-16 -29 -30 -57 -30 -62 0 -11 135 0 178 15 17 6 32 13
32 15 0 3 -12 22 -26 44 -25 38 -30 40 -75 40 -48 0 -49 -1 -79 -52z"/>
</g>
</svg>
