<svg width="32" height="34" viewBox="0 0 32 34" fill="none" xmlns="http://www.w3.org/2000/svg">
<path d="M17.832 0.714268C16.804 -0.238089 15.196 -0.238089 14.168 0.714268L1.25195 12.68C0.4528 13.4204 0 14.4505 0 15.5281V30.0805C0 32.2451 1.79085 34 4 34H8C10.2091 34 12 32.2451 12 30.0805V23.548C12 22.8266 12.597 22.2416 13.3333 22.2416H18.6667C19.403 22.2416 20 22.8266 20 23.548V30.0805C20 32.2451 21.7909 34 24 34H28C30.2091 34 32 32.2451 32 30.0805V15.5281C32 14.4505 31.5472 13.4204 30.748 12.68L17.832 0.714268Z" fill="#0B0B0B"/>
</svg>
